# Blender v2.93.1 OBJ File: 'Room.blend'
# www.blender.org
mtllib Floor.mtl
o Room.001_Plane.008
v 14.868807 1.829803 -8.547274
v 22.868807 1.829803 -8.547274
v 14.868807 1.829803 -16.547274
v 22.868807 1.829803 -16.547274
v 14.468807 1.429803 -8.547274
v 22.868807 1.429803 -8.547274
v 22.868807 1.429803 -16.947273
vt 0.000000 0.000000
vt 0.000000 0.000000
vt 1.000000 0.000000
vt 1.000000 0.000000
vt 1.000000 1.000000
vt 1.000000 1.000000
vt 0.000000 1.000000
vn 0.0000 0.0000 1.0000
vn 1.0000 -0.0000 0.0000
vn 0.0000 1.0000 0.0000
usemtl Wall.001
s off
f 1/1/1 5/2/1 6/3/1 2/4/1
f 2/4/2 6/3/2 7/5/2 4/6/2
usemtl Floor.001
f 1/1/3 2/4/3 4/6/3 3/7/3
