# Blender v2.93.1 OBJ File: 'Room.blend'
# www.blender.org
mtllib Wall.mtl
o Room.002_Plane.009
v 38.541916 4.305597 -3.006260
v 38.541916 4.305597 -11.006260
v 46.541916 4.305597 -11.006260
v 38.541916 9.805597 -3.006260
v 38.541916 9.805597 -11.006260
v 46.541916 9.805597 -11.006260
v 38.141918 3.905597 -11.406260
v 38.141918 3.905597 -3.006260
v 46.541916 3.905597 -11.406260
v 38.141918 9.805597 -11.406260
v 38.141918 9.805597 -3.006260
v 46.541916 9.805597 -11.406260
vt 0.000000 1.000000
vt 1.000000 1.000000
vt 1.000000 1.000000
vt 0.000000 1.000000
vt 0.000000 0.000000
vt 0.000000 0.000000
vt 0.000000 1.000000
vt 0.000000 1.000000
vt 1.000000 1.000000
vt 1.000000 1.000000
vt 0.000000 0.000000
vt 0.000000 0.000000
vn 0.0000 0.0000 1.0000
vn 1.0000 0.0000 0.0000
vn 0.0000 0.0000 -1.0000
vn -1.0000 0.0000 0.0000
vn 0.0000 1.0000 0.0000
usemtl Wall.002
s off
f 2/1/1 3/2/1 6/3/1 5/4/1
f 1/5/2 2/1/2 5/4/2 4/6/2
f 7/7/3 10/8/3 12/9/3 9/10/3
f 8/11/4 11/12/4 10/8/4 7/7/4
f 3/2/2 9/10/2 12/9/2 6/3/2
f 6/3/5 12/9/5 10/8/5 5/4/5
f 4/6/1 11/12/1 8/11/1 1/5/1
f 5/4/5 10/8/5 11/12/5 4/6/5
